<svg width="138" height="33" viewBox="0 0 138 33" fill="none" xmlns="http://www.w3.org/2000/svg">
<path d="M16 0C7.16369 0 0 7.16369 0 16C0 23.5551 5.23815 29.8831 12.28 31.5606C11.9157 31.4738 11.5545 31.3766 11.2 31.2658V27.6C11.2 27.6 10.6 27.8 9.8 27.8C7.56185 27.8 6.632 25.8031 6.4 24.8C6.25908 24.1889 5.89108 23.6098 5.496 23.256C5.024 22.8351 4.80308 22.8338 4.8 22.6898C4.79385 22.3877 5.20492 22.4 5.4 22.4C6.4 22.4 7.15815 23.464 7.51015 24.0142C8.38215 25.3723 9.31815 25.6 9.8 25.6C10.4 25.6 10.9182 25.5102 11.2751 25.3378C11.44 24.176 11.9569 23.1409 12.8 22.4C9.048 21.6498 6.4 19.4978 6.4 16C6.4 14.1982 7.12308 12.5422 8.328 11.2049C8.20492 10.856 8 10.1502 8 9C8 8.24 8.05292 7.30708 8.4 6.4C8.4 6.4 10.6818 6.416 12.8338 8.45415C13.8271 8.16492 14.8898 8 16 8C17.1102 8 18.1729 8.16492 19.1662 8.45415C21.3182 6.416 23.6 6.4 23.6 6.4C23.9489 7.30708 24 8.24 24 9C24 10.24 23.8351 10.9631 23.7342 11.2751C24.9022 12.6 25.6 14.2302 25.6 16C25.6 19.4978 22.952 21.6498 19.2 22.4C20.2018 23.28 20.8 24.5618 20.8 26V31.2658C20.4455 31.3772 20.0849 31.4738 19.72 31.5606C26.7618 29.8831 32 23.5551 32 16C32 7.16369 24.8363 0 16 0ZM17.1157 31.9569C16.7471 31.9828 16.3754 32 16 32C16.3754 32 16.7465 31.9822 17.1157 31.9569ZM16 32C15.6246 32 15.2529 31.9828 14.8843 31.9569C15.2535 31.9822 15.6246 32 16 32ZM14.6388 31.9385C13.8898 31.8751 13.1551 31.7606 12.4394 31.5975C13.1557 31.76 13.8898 31.8751 14.6388 31.9385Z" fill="white"/>
<path d="M54.8011 12.5C54.5902 11.8544 54.3121 11.2759 53.967 10.7646C53.6282 10.2468 53.2223 9.80575 52.7493 9.44141C52.2827 9.07706 51.7521 8.799 51.1577 8.60724C50.5632 8.41548 49.9112 8.3196 49.2017 8.3196C48.0384 8.3196 46.9805 8.62003 46.0281 9.22088C45.0756 9.82173 44.3182 10.707 43.7557 11.8768C43.1932 13.0465 42.9119 14.4815 42.9119 16.1818C42.9119 17.8821 43.1964 19.3171 43.7653 20.4869C44.3342 21.6566 45.1044 22.5419 46.076 23.1428C47.0476 23.7436 48.1406 24.044 49.3551 24.044C50.4801 24.044 51.4709 23.8043 52.3274 23.3249C53.1903 22.8391 53.8615 22.1552 54.3409 21.2731C54.8267 20.3846 55.0696 19.3395 55.0696 18.1378L55.7983 18.2912H49.892V16.1818H57.3707V18.2912C57.3707 19.9084 57.0256 21.3146 56.3352 22.5099C55.6513 23.7053 54.7053 24.6321 53.4972 25.2905C52.2955 25.9425 50.9148 26.2685 49.3551 26.2685C47.6165 26.2685 46.0888 25.8594 44.772 25.0412C43.4616 24.223 42.4389 23.0597 41.7038 21.5511C40.9751 20.0426 40.6108 18.2528 40.6108 16.1818C40.6108 14.6286 40.8185 13.2319 41.234 11.9918C41.6559 10.7454 42.2504 9.6843 43.0174 8.80859C43.7844 7.93288 44.6921 7.26172 45.7404 6.7951C46.7887 6.32848 47.9425 6.09517 49.2017 6.09517C50.2372 6.09517 51.2024 6.25177 52.0973 6.56498C52.9986 6.8718 53.8008 7.30966 54.5039 7.87855C55.2134 8.44105 55.8047 9.11541 56.2777 9.90163C56.7507 10.6815 57.0767 11.5476 57.2557 12.5H54.8011ZM62.0593 26V11.2727H64.3221V26H62.0593ZM63.2099 8.81818C62.7688 8.81818 62.3885 8.66797 62.0689 8.36754C61.7557 8.06712 61.5991 7.70597 61.5991 7.28409C61.5991 6.86222 61.7557 6.50107 62.0689 6.20064C62.3885 5.90021 62.7688 5.75 63.2099 5.75C63.6509 5.75 64.0281 5.90021 64.3413 6.20064C64.6609 6.50107 64.8207 6.86222 64.8207 7.28409C64.8207 7.70597 64.6609 8.06712 64.3413 8.36754C64.0281 8.66797 63.6509 8.81818 63.2099 8.81818ZM74.8714 11.2727V13.1903H67.2393V11.2727H74.8714ZM69.4637 7.74432H71.7265V21.7812C71.7265 22.4205 71.8192 22.8999 72.0045 23.2195C72.1963 23.5327 72.4392 23.7436 72.7332 23.8523C73.0336 23.9545 73.3501 24.0057 73.6824 24.0057C73.9317 24.0057 74.1363 23.9929 74.2961 23.9673C74.4559 23.9354 74.5837 23.9098 74.6796 23.8906L75.1398 25.9233C74.9864 25.9808 74.7723 26.0384 74.4974 26.0959C74.2226 26.1598 73.8742 26.1918 73.4523 26.1918C72.8131 26.1918 72.1867 26.0543 71.5731 25.7795C70.9658 25.5046 70.4608 25.0859 70.0581 24.5234C69.6618 23.9609 69.4637 23.2514 69.4637 22.3949V7.74432ZM78.8983 26V6.36364H81.2762V15.108H91.7464V6.36364H94.1242V26H91.7464V17.2173H81.2762V26H78.8983ZM107.859 19.9787V11.2727H110.122V26H107.859V23.5071H107.706C107.361 24.255 106.824 24.891 106.095 25.4151C105.366 25.9329 104.446 26.1918 103.334 26.1918C102.413 26.1918 101.595 25.9904 100.879 25.5877C100.163 25.1786 99.6006 24.565 99.1915 23.7468C98.7824 22.9222 98.5779 21.8835 98.5779 20.6307V11.2727H100.841V20.4773C100.841 21.5511 101.141 22.4077 101.742 23.0469C102.349 23.6861 103.123 24.0057 104.062 24.0057C104.625 24.0057 105.197 23.8619 105.778 23.5742C106.367 23.2866 106.859 22.8455 107.255 22.2511C107.658 21.6566 107.859 20.8991 107.859 19.9787ZM114.573 26V6.36364H116.836V13.6122H117.028C117.194 13.3565 117.424 13.0305 117.718 12.6342C118.018 12.2315 118.447 11.8736 119.003 11.5604C119.565 11.2408 120.326 11.081 121.285 11.081C122.525 11.081 123.618 11.391 124.564 12.011C125.51 12.631 126.248 13.5099 126.779 14.6477C127.309 15.7855 127.575 17.1278 127.575 18.6747C127.575 20.2344 127.309 21.5863 126.779 22.7305C126.248 23.8683 125.513 24.7504 124.574 25.3768C123.634 25.9968 122.55 26.3068 121.323 26.3068C120.377 26.3068 119.62 26.1502 119.051 25.837C118.482 25.5174 118.044 25.1562 117.737 24.7536C117.43 24.3445 117.194 24.0057 117.028 23.7372H116.759V26H114.573ZM116.798 18.6364C116.798 19.7486 116.961 20.7298 117.287 21.5799C117.613 22.4237 118.089 23.0852 118.715 23.5646C119.342 24.0376 120.109 24.2741 121.016 24.2741C121.962 24.2741 122.752 24.0249 123.385 23.5263C124.024 23.0213 124.503 22.3437 124.823 21.4936C125.149 20.6371 125.312 19.6847 125.312 18.6364C125.312 17.6009 125.152 16.6676 124.832 15.8366C124.519 14.9993 124.043 14.3377 123.404 13.8519C122.771 13.3597 121.975 13.1136 121.016 13.1136C120.096 13.1136 119.322 13.3469 118.696 13.8136C118.07 14.2738 117.597 14.9194 117.277 15.7504C116.957 16.5749 116.798 17.5369 116.798 18.6364Z" fill="white"/>
</svg>
